<?xml version="1.0" encoding="utf-8"?>
<!-- Generator: Adobe Illustrator 18.1.0, SVG Export Plug-In . SVG Version: 6.00 Build 0)  -->
<!DOCTYPE svg PUBLIC "-//W3C//DTD SVG 1.1//EN" "http://www.w3.org/Graphics/SVG/1.1/DTD/svg11.dtd">
<svg version="1.1" id="Layer_1" xmlns="http://www.w3.org/2000/svg" xmlns:xlink="http://www.w3.org/1999/xlink" x="0px" y="0px"
	 viewBox="-0.5 164.5 165 165" enable-background="new -0.5 164.5 165 165" xml:space="preserve">
<g>
	<g>
		<circle fill="#C3E1EF" cx="82" cy="247" r="82.5"/>
	</g>
</g>
<g>
	<g>
		<g>
			<path fill="#C2C1C1" d="M108.2,214.5H28.5v-8.1c0-0.6,0.5-1,1-1h77.7c0.6,0,1,0.5,1,1V214.5z"/>
		</g>
		<g>
			<path fill="#FFFFFF" d="M105.4,273.3H31.3c-1.5,0-2.8-1.3-2.8-2.8v-56h79.7v56C108.2,272,107,273.3,105.4,273.3z"/>
		</g>
		<g>
			<circle fill="#6B7174" cx="33.1" cy="210.6" r="1"/>
		</g>
		<g>
			<circle fill="#6B7174" cx="36.6" cy="210.6" r="1"/>
		</g>
		<g>
			<circle fill="#6B7174" cx="40.4" cy="210.6" r="1"/>
		</g>
	</g>
	<g>
		<g>
			<line fill="none" x1="33.1" y1="241.9" x2="91.4" y2="241.9"/>
			<rect x="33.1" y="240.5" fill="#B5B6B9" width="58.2" height="2.8"/>
		</g>
		<g>
			<line fill="none" x1="33.4" y1="250.6" x2="57.6" y2="250.6"/>
			<rect x="33.4" y="250" fill="#DADBDB" width="24.2" height="1.2"/>
		</g>
		<g>
			<line fill="none" x1="33.4" y1="254.8" x2="57.6" y2="254.8"/>
			<rect x="33.4" y="254.2" fill="#DADBDB" width="24.2" height="1.2"/>
		</g>
		<g>
			<line fill="none" x1="33.4" y1="259" x2="57.6" y2="259"/>
			<rect x="33.4" y="258.4" fill="#DADBDB" width="24.2" height="1.2"/>
		</g>
		<g>
			<line fill="none" x1="33.4" y1="263.2" x2="57.6" y2="263.2"/>
			<rect x="33.4" y="262.6" fill="#DADBDB" width="24.2" height="1.2"/>
		</g>
		<g>
			<rect x="33.1" y="219.1" fill="#8E9394" width="26.9" height="17.3"/>
		</g>
		<g>
			<path fill="#6B7174" d="M71.2,260.8H52.5c-1.4,0-2.5-1.1-2.5-2.5l0,0c0-1.4,1.1-2.5,2.5-2.5h18.7c1.4,0,2.5,1.1,2.5,2.5l0,0
				C73.7,259.7,72.6,260.8,71.2,260.8z"/>
		</g>
	</g>
	<g>
		<g>
			<g>
				<path fill="#D7D6D6" d="M116.1,222.2H36.4v-8.1c0-0.6,0.5-1,1-1h77.7c0.6,0,1,0.5,1,1V222.2z"/>
			</g>
			<g>
				<path fill="#FFFFFF" d="M113.3,280.9H39.2c-1.5,0-2.8-1.3-2.8-2.8v-56h79.7v56C116.1,279.7,114.9,280.9,113.3,280.9z"/>
			</g>
			<g>
				<circle fill="#6B7174" cx="41" cy="218.3" r="1"/>
			</g>
			<g>
				<circle fill="#6B7174" cx="44.5" cy="218.3" r="1"/>
			</g>
			<g>
				<circle fill="#6B7174" cx="48.3" cy="218.3" r="1"/>
			</g>
		</g>
	</g>
	<g>
		<g>
			<line fill="none" x1="41" y1="229.2" x2="99.2" y2="229.2"/>
			<rect x="41" y="227.8" fill="#454C51" width="58.2" height="2.8"/>
		</g>
		<g>
			<line fill="none" x1="41" y1="234.4" x2="99.2" y2="234.4"/>
			<rect x="41" y="233" fill="#454C51" width="58.2" height="2.8"/>
		</g>
		<g>
			<line fill="none" x1="75" y1="244.4" x2="99.2" y2="244.4"/>
			<rect x="75" y="243.8" fill="#B5B6B9" width="24.2" height="1.2"/>
		</g>
		<g>
			<line fill="none" x1="75" y1="248.6" x2="99.2" y2="248.6"/>
			<rect x="75" y="248" fill="#B5B6B9" width="24.2" height="1.2"/>
		</g>
		<g>
			<line fill="none" x1="75" y1="252.8" x2="99.2" y2="252.8"/>
			<rect x="75" y="252.2" fill="#B5B6B9" width="24.2" height="1.2"/>
		</g>
		<g>
			<line fill="none" x1="75" y1="257" x2="99.2" y2="257"/>
			<rect x="75" y="256.4" fill="#B5B6B9" width="24.2" height="1.2"/>
		</g>
		<g>
			<rect x="41" y="243.2" fill="#C7C7C9" width="26.9" height="30.1"/>
		</g>
		<g>
			<path fill="#6B7174" d="M79,271.1H60.3c-1.4,0-2.5-1.1-2.5-2.5l0,0c0-1.4,1.1-2.5,2.5-2.5H79c1.4,0,2.5,1.1,2.5,2.5l0,0
				C81.5,269.9,80.4,271.1,79,271.1z"/>
		</g>
	</g>
	<g>
		<g>
			<g>
				<path fill="#EAEAEA" d="M124.2,229.9H44.5v-8.1c0-0.6,0.5-1,1-1h77.7c0.6,0,1,0.5,1,1V229.9z"/>
			</g>
			<g>
				<path fill="#FFFFFF" d="M121.4,288.6H47.3c-1.5,0-2.8-1.3-2.8-2.8v-56h79.7v56C124.2,287.4,123,288.6,121.4,288.6z"/>
			</g>
			<g>
				<circle fill="#6B7174" cx="49.2" cy="226" r="1"/>
			</g>
			<g>
				<circle fill="#6B7174" cx="52.6" cy="226" r="1"/>
			</g>
			<g>
				<circle fill="#6B7174" cx="56.4" cy="226" r="1"/>
			</g>
		</g>
	</g>
	<g>
		<g>
			<line fill="none" x1="55.2" y1="239.9" x2="113.5" y2="239.9"/>
			<rect x="55.2" y="238.5" fill="#5593C4" width="58.2" height="2.8"/>
		</g>
		<g>
			<line fill="none" x1="55.2" y1="245.1" x2="113.5" y2="245.1"/>
			<rect x="55.2" y="243.7" fill="#5593C4" width="58.2" height="2.8"/>
		</g>
		<g>
			<line fill="none" x1="89.3" y1="255.1" x2="113.5" y2="255.1"/>
			<rect x="89.3" y="254.5" fill="#8E9394" width="24.2" height="1.2"/>
		</g>
		<g>
			<line fill="none" x1="89.3" y1="259.3" x2="113.5" y2="259.3"/>
			<rect x="89.3" y="258.7" fill="#8E9394" width="24.2" height="1.2"/>
		</g>
		<g>
			<line fill="none" x1="89.3" y1="263.5" x2="113.5" y2="263.5"/>
			<rect x="89.3" y="262.9" fill="#8E9394" width="24.2" height="1.2"/>
		</g>
		<g>
			<line fill="none" x1="89.3" y1="267.7" x2="113.5" y2="267.7"/>
			<rect x="89.3" y="267.1" fill="#8E9394" width="24.2" height="1.2"/>
		</g>
		<g>
			<rect x="55.2" y="254.8" fill="#C1DBEB" width="26.9" height="14.1"/>
		</g>
		<g>
			<path fill="#69B4D7" d="M93.3,281.8H74.6c-1.4,0-2.5-1.1-2.5-2.5l0,0c0-1.4,1.1-2.5,2.5-2.5h18.7c1.4,0,2.5,1.1,2.5,2.5l0,0
				C95.8,280.6,94.6,281.8,93.3,281.8z"/>
		</g>
	</g>
	<g>
		<g>
			<g>
				<circle fill="#FFFFFF" cx="100.5" cy="245.8" r="16.2"/>
				<path fill="#636467" d="M100.5,264.1c-10.1,0-18.2-8.2-18.2-18.2c0-10.1,8.2-18.2,18.2-18.2s18.2,8.2,18.2,18.2
					C118.8,255.9,110.6,264.1,100.5,264.1z M100.5,231.8c-7.8,0-14.1,6.3-14.1,14.1c0,7.8,6.3,14.1,14.1,14.1s14.1-6.3,14.1-14.1
					C114.6,238.1,108.3,231.8,100.5,231.8z"/>
			</g>
			<g>
				
					<rect x="107" y="263.4" transform="matrix(-0.7071 -0.7071 0.7071 -0.7071 13.0352 536.4665)" fill="#636467" width="21.3" height="4.2"/>
			</g>
			<g>
				
					<rect x="120" y="272.2" transform="matrix(-0.7071 -0.7071 0.7071 -0.7071 23.1021 560.7773)" fill="#636467" width="15.3" height="6.8"/>
			</g>
		</g>
		<g>
			<g>
				<rect x="93.2" y="242.3" fill="#95C63F" width="3" height="9.4"/>
			</g>
			<g>
				<rect x="97.2" y="239.8" fill="#95C63F" width="3" height="11.9"/>
			</g>
			<g>
				<rect x="100.9" y="244.8" fill="#95C63F" width="3" height="6.9"/>
			</g>
			<g>
				<rect x="104.7" y="242.3" fill="#95C63F" width="3" height="9.4"/>
			</g>
		</g>
	</g>
</g>
</svg>
