<?xml version="1.0" encoding="utf-8"?>
<!-- Generator: Adobe Illustrator 18.1.0, SVG Export Plug-In . SVG Version: 6.00 Build 0)  -->
<!DOCTYPE svg PUBLIC "-//W3C//DTD SVG 1.1//EN" "http://www.w3.org/Graphics/SVG/1.1/DTD/svg11.dtd">
<svg version="1.1" id="Layer_1" xmlns="http://www.w3.org/2000/svg" xmlns:xlink="http://www.w3.org/1999/xlink" x="0px" y="0px"
	 viewBox="-0.5 164.5 165 165" enable-background="new -0.5 164.5 165 165" xml:space="preserve">
<g>
	<g>
		<circle fill="#C3E1EF" cx="82" cy="247" r="82.5"/>
	</g>
</g>
<path fill="none" d="M85.3,261.9c1.3,0,2.2-1.2,1.9-2.5c-0.9-3.9-2.6-11.5-3.5-14c-1.5-3.9-7-13.2-7-13.2v29.7H85.3"/>
<rect x="-332.6" y="-552.2" fill="none" width="1494.3" height="2006.8"/>
<rect x="-332.6" y="-552.2" fill="none" width="1494.3" height="2006.8"/>
<rect x="-332.6" y="-552.2" fill="none" width="1494.3" height="2006.8"/>
<rect x="-332.6" y="-552.2" fill="none" width="1494.3" height="2006.8"/>
<rect x="-332.6" y="-552.2" fill="none" width="1494.3" height="2006.8"/>
<rect x="-332.6" y="-552.2" fill="none" width="1494.3" height="2006.8"/>
<rect x="-332.6" y="-552.2" fill="none" width="1494.3" height="2006.8"/>
<rect x="-332.6" y="-552.2" fill="none" width="1494.3" height="2006.8"/>
<rect x="-332.6" y="-552.2" fill="none" width="1494.3" height="2006.8"/>
<rect x="-332.6" y="-552.2" fill="none" width="1494.3" height="2006.8"/>
<rect x="-332.6" y="-552.2" fill="none" width="1494.3" height="2006.8"/>
<rect x="-332.6" y="-552.2" fill="none" width="1494.3" height="2006.8"/>
<rect x="-332.6" y="-552.2" fill="none" width="1494.3" height="2006.8"/>
<rect x="-332.6" y="-552.2" fill="none" width="1494.3" height="2006.8"/>
<rect x="-332.6" y="-552.2" fill="none" width="1494.3" height="2006.8"/>
<rect x="-332.6" y="-552.2" fill="none" width="1494.3" height="2006.8"/>
<rect x="-332.6" y="-552.2" fill="none" width="1494.3" height="2006.8"/>
<rect x="-332.6" y="-552.2" fill="none" width="1494.3" height="2006.8"/>
<rect x="-332.6" y="-552.2" fill="none" width="1494.3" height="2006.8"/>
<rect x="-332.6" y="-552.2" fill="none" width="1494.3" height="2006.8"/>
<rect x="-332.6" y="-552.2" fill="none" width="1494.3" height="2006.8"/>
<rect x="-332.6" y="-552.2" fill="none" width="1494.3" height="2006.8"/>
<rect x="-332.6" y="-552.2" fill="none" width="1494.3" height="2006.8"/>
<g>
	<defs>
		<rect id="SVGID_1_" x="-0.5" y="164.5" width="165" height="165"/>
	</defs>
	<clipPath id="SVGID_2_">
		<use xlink:href="#SVGID_1_"  overflow="visible"/>
	</clipPath>
	<g clip-path="url(#SVGID_2_)">
		<defs>
			<rect id="SVGID_3_" x="-332.6" y="-552.2" width="1494.3" height="2006.8"/>
		</defs>
		<clipPath id="SVGID_4_">
			<use xlink:href="#SVGID_3_"  overflow="visible"/>
		</clipPath>
		<g clip-path="url(#SVGID_4_)">
			<defs>
				<path id="SVGID_5_" d="M164,247c0,45.3-36.9,82-82.5,82S-1,292.3-1,247s36.9-82,82.5-82S164,201.7,164,247"/>
			</defs>
			<clipPath id="SVGID_6_">
				<use xlink:href="#SVGID_5_"  overflow="visible"/>
			</clipPath>
			<g clip-path="url(#SVGID_6_)">
				<defs>
					<rect id="SVGID_7_" x="-0.5" y="164.5" width="165" height="165"/>
				</defs>
				<clipPath id="SVGID_8_">
					<use xlink:href="#SVGID_7_"  overflow="visible"/>
				</clipPath>
			</g>
		</g>
	</g>
	<g clip-path="url(#SVGID_2_)">
		<defs>
			<rect id="SVGID_9_" x="-332.6" y="-552.2" width="1494.3" height="2006.8"/>
		</defs>
		<clipPath id="SVGID_10_">
			<use xlink:href="#SVGID_9_"  overflow="visible"/>
		</clipPath>
		<g clip-path="url(#SVGID_10_)">
			<defs>
				<path id="SVGID_11_" d="M76.9,277.4H55.6c-0.6,0-1-0.5-1-1v-0.7c0-0.6,0.5-1,1-1h21.4c0.6,0,1,0.4,1,1v0.7
					C78,276.9,77.5,277.4,76.9,277.4"/>
			</defs>
			<clipPath id="SVGID_12_">
				<use xlink:href="#SVGID_11_"  overflow="visible"/>
			</clipPath>
			<g clip-path="url(#SVGID_12_)">
				<defs>
					<rect id="SVGID_13_" x="-0.5" y="164.5" width="165" height="165"/>
				</defs>
				<clipPath id="SVGID_14_">
					<use xlink:href="#SVGID_13_"  overflow="visible"/>
				</clipPath>
				
					<rect x="49.4" y="269.6" clip-path="url(#SVGID_14_)" fill-rule="evenodd" clip-rule="evenodd" fill="#8E9394" width="33.8" height="13"/>
			</g>
		</g>
	</g>
	<g clip-path="url(#SVGID_2_)">
		<defs>
			<rect id="SVGID_15_" x="-332.6" y="-552.2" width="1494.3" height="2006.8"/>
		</defs>
		<clipPath id="SVGID_16_">
			<use xlink:href="#SVGID_15_"  overflow="visible"/>
		</clipPath>
		<g clip-path="url(#SVGID_16_)">
			<defs>
				<path id="SVGID_17_" d="M74.2,279.7h-16c-0.5,0-0.9-0.4-0.9-0.9v-0.9c0-0.5,0.4-0.9,0.9-0.9h16c0.5,0,0.9,0.4,0.9,0.9v0.9
					C75.1,279.3,74.7,279.7,74.2,279.7"/>
			</defs>
			<clipPath id="SVGID_18_">
				<use xlink:href="#SVGID_17_"  overflow="visible"/>
			</clipPath>
			<g clip-path="url(#SVGID_18_)">
				<defs>
					<rect id="SVGID_19_" x="-0.5" y="164.5" width="165" height="165"/>
				</defs>
				<clipPath id="SVGID_20_">
					<use xlink:href="#SVGID_19_"  overflow="visible"/>
				</clipPath>
				
					<rect x="52.2" y="271.9" clip-path="url(#SVGID_20_)" fill-rule="evenodd" clip-rule="evenodd" fill="#8E9394" width="28.1" height="13"/>
			</g>
		</g>
	</g>
	<g clip-path="url(#SVGID_2_)">
		<defs>
			<rect id="SVGID_21_" x="-332.6" y="-552.2" width="1494.3" height="2006.8"/>
		</defs>
		<clipPath id="SVGID_22_">
			<use xlink:href="#SVGID_21_"  overflow="visible"/>
		</clipPath>
		<g clip-path="url(#SVGID_22_)">
			<defs>
				<path id="SVGID_23_" d="M107.2,277.4H85.9c-0.6,0-1-0.5-1-1v-0.7c0-0.6,0.5-1,1-1h21.4c0.6,0,1,0.4,1,1v0.7
					C108.3,276.9,107.8,277.4,107.2,277.4"/>
			</defs>
			<clipPath id="SVGID_24_">
				<use xlink:href="#SVGID_23_"  overflow="visible"/>
			</clipPath>
			<g clip-path="url(#SVGID_24_)">
				<defs>
					<rect id="SVGID_25_" x="-0.5" y="164.5" width="165" height="165"/>
				</defs>
				<clipPath id="SVGID_26_">
					<use xlink:href="#SVGID_25_"  overflow="visible"/>
				</clipPath>
				
					<rect x="79.7" y="269.6" clip-path="url(#SVGID_26_)" fill-rule="evenodd" clip-rule="evenodd" fill="#8E9394" width="33.8" height="13"/>
			</g>
		</g>
	</g>
	<g clip-path="url(#SVGID_2_)">
		<defs>
			<rect id="SVGID_27_" x="-332.6" y="-552.2" width="1494.3" height="2006.8"/>
		</defs>
		<clipPath id="SVGID_28_">
			<use xlink:href="#SVGID_27_"  overflow="visible"/>
		</clipPath>
		<g clip-path="url(#SVGID_28_)">
			<defs>
				<path id="SVGID_29_" d="M104.5,279.7h-16c-0.5,0-0.9-0.4-0.9-0.9v-0.9c0-0.5,0.4-0.9,0.9-0.9h16c0.5,0,0.9,0.4,0.9,0.9v0.9
					C105.4,279.3,105,279.7,104.5,279.7"/>
			</defs>
			<clipPath id="SVGID_30_">
				<use xlink:href="#SVGID_29_"  overflow="visible"/>
			</clipPath>
			<g clip-path="url(#SVGID_30_)">
				<defs>
					<rect id="SVGID_31_" x="-0.5" y="164.5" width="165" height="165"/>
				</defs>
				<clipPath id="SVGID_32_">
					<use xlink:href="#SVGID_31_"  overflow="visible"/>
				</clipPath>
				
					<rect x="82.5" y="271.9" clip-path="url(#SVGID_32_)" fill-rule="evenodd" clip-rule="evenodd" fill="#8E9394" width="28.1" height="13"/>
			</g>
		</g>
	</g>
	<g clip-path="url(#SVGID_2_)">
		<defs>
			<rect id="SVGID_33_" x="-332.6" y="-552.2" width="1494.3" height="2006.8"/>
		</defs>
		<clipPath id="SVGID_34_">
			<use xlink:href="#SVGID_33_"  overflow="visible"/>
		</clipPath>
		<g clip-path="url(#SVGID_34_)">
			<defs>
				<path id="SVGID_35_" d="M42.6,269.2c-1.2,0-2.1-1.2-1.9-2.4c0.9-3.9,2.6-11.5,3.5-14.1c1.5-3.9,7-13.2,7-13.2v29.7H42.6"/>
			</defs>
			<clipPath id="SVGID_36_">
				<use xlink:href="#SVGID_35_"  overflow="visible"/>
			</clipPath>
			<g clip-path="url(#SVGID_36_)">
				<defs>
					<rect id="SVGID_37_" x="-0.5" y="164.5" width="165" height="165"/>
				</defs>
				<clipPath id="SVGID_38_">
					<use xlink:href="#SVGID_37_"  overflow="visible"/>
				</clipPath>
				
					<rect x="35.5" y="234.3" clip-path="url(#SVGID_38_)" fill-rule="evenodd" clip-rule="evenodd" fill="#0480BA" width="21" height="40"/>
			</g>
		</g>
	</g>
	<g clip-path="url(#SVGID_2_)">
		<defs>
			<rect id="SVGID_39_" x="-332.6" y="-552.2" width="1494.3" height="2006.8"/>
		</defs>
		<clipPath id="SVGID_40_">
			<use xlink:href="#SVGID_39_"  overflow="visible"/>
		</clipPath>
		<g clip-path="url(#SVGID_40_)">
			<defs>
				<path id="SVGID_41_" d="M120.4,269.2c1.3,0,2.2-1.2,1.9-2.5c-0.9-3.9-2.6-11.5-3.5-14c-1.5-3.9-7-13.2-7-13.2v29.7H120.4"/>
			</defs>
			<clipPath id="SVGID_42_">
				<use xlink:href="#SVGID_41_"  overflow="visible"/>
			</clipPath>
			<g clip-path="url(#SVGID_42_)">
				<defs>
					<rect id="SVGID_43_" x="-0.5" y="164.5" width="165" height="165"/>
				</defs>
				<clipPath id="SVGID_44_">
					<use xlink:href="#SVGID_43_"  overflow="visible"/>
				</clipPath>
				
					<rect x="106.6" y="234.3" clip-path="url(#SVGID_44_)" fill-rule="evenodd" clip-rule="evenodd" fill="#0480BA" width="20.9" height="40"/>
			</g>
		</g>
	</g>
	<g clip-path="url(#SVGID_2_)">
		<defs>
			<rect id="SVGID_45_" x="-332.6" y="-552.2" width="1494.3" height="2006.8"/>
		</defs>
		<clipPath id="SVGID_46_">
			<use xlink:href="#SVGID_45_"  overflow="visible"/>
		</clipPath>
		<g clip-path="url(#SVGID_46_)">
			<defs>
				<path id="SVGID_47_" d="M111.8,214v57.2c0,2.4-2.1,4.3-4.7,4.3H56c-2.6,0-4.7-2-4.7-4.3V214c0-2.2,0.6-4.5,1.5-6.8h27.4
					c0.6,1.5,1.1,3,1.3,4.4c0.2-1.5,0.7-3,1.3-4.4h27.4C111.2,209.4,111.8,211.8,111.8,214"/>
			</defs>
			<clipPath id="SVGID_48_">
				<use xlink:href="#SVGID_47_"  overflow="visible"/>
			</clipPath>
			<g clip-path="url(#SVGID_48_)">
				<defs>
					<rect id="SVGID_49_" x="-0.5" y="164.5" width="165" height="165"/>
				</defs>
				<clipPath id="SVGID_50_">
					<use xlink:href="#SVGID_49_"  overflow="visible"/>
				</clipPath>
				
					<rect x="46.1" y="202.1" clip-path="url(#SVGID_50_)" fill-rule="evenodd" clip-rule="evenodd" fill="#EDEDED" width="70.9" height="78.6"/>
			</g>
		</g>
	</g>
	<g clip-path="url(#SVGID_2_)">
		<defs>
			<rect id="SVGID_51_" x="-332.6" y="-552.2" width="1494.3" height="2006.8"/>
		</defs>
		<clipPath id="SVGID_52_">
			<use xlink:href="#SVGID_51_"  overflow="visible"/>
		</clipPath>
		<g clip-path="url(#SVGID_52_)">
			<defs>
				<path id="SVGID_53_" d="M66.3,207.2H52.8c-1,2.2-1.5,4.6-1.5,6.8v57.2c0,2.4,2.1,4.3,4.7,4.3h10.3V207.2"/>
			</defs>
			<clipPath id="SVGID_54_">
				<use xlink:href="#SVGID_53_"  overflow="visible"/>
			</clipPath>
			<g clip-path="url(#SVGID_54_)">
				<defs>
					<rect id="SVGID_55_" x="-0.5" y="164.5" width="165" height="165"/>
				</defs>
				<clipPath id="SVGID_56_">
					<use xlink:href="#SVGID_55_"  overflow="visible"/>
				</clipPath>
				
					<rect x="46.1" y="202.1" clip-path="url(#SVGID_56_)" fill-rule="evenodd" clip-rule="evenodd" fill="#F4F4F4" width="25.4" height="78.6"/>
			</g>
		</g>
	</g>
	<g clip-path="url(#SVGID_2_)">
		<defs>
			<rect id="SVGID_57_" x="-332.6" y="-552.2" width="1494.3" height="2006.8"/>
		</defs>
		<clipPath id="SVGID_58_">
			<use xlink:href="#SVGID_57_"  overflow="visible"/>
		</clipPath>
		<g clip-path="url(#SVGID_58_)">
			<defs>
				<path id="SVGID_59_" d="M96.6,207.2H82.9c-0.6,1.5-1.1,3-1.3,4.4v63.8h15V207.2"/>
			</defs>
			<clipPath id="SVGID_60_">
				<use xlink:href="#SVGID_59_"  overflow="visible"/>
			</clipPath>
			<g clip-path="url(#SVGID_60_)">
				<defs>
					<rect id="SVGID_61_" x="-0.5" y="164.5" width="165" height="165"/>
				</defs>
				<clipPath id="SVGID_62_">
					<use xlink:href="#SVGID_61_"  overflow="visible"/>
				</clipPath>
				
					<rect x="76.3" y="202.1" clip-path="url(#SVGID_62_)" fill-rule="evenodd" clip-rule="evenodd" fill="#F4F4F4" width="25.4" height="78.6"/>
			</g>
		</g>
	</g>
	<g clip-path="url(#SVGID_2_)">
		<defs>
			<rect id="SVGID_63_" x="-332.6" y="-552.2" width="1494.3" height="2006.8"/>
		</defs>
		<clipPath id="SVGID_64_">
			<use xlink:href="#SVGID_63_"  overflow="visible"/>
		</clipPath>
		<g clip-path="url(#SVGID_64_)">
			<defs>
				<rect id="SVGID_65_" x="64.2" y="217" width="6.5" height="2.7"/>
			</defs>
			<clipPath id="SVGID_66_">
				<use xlink:href="#SVGID_65_"  overflow="visible"/>
			</clipPath>
			<g clip-path="url(#SVGID_66_)">
				<defs>
					<rect id="SVGID_67_" x="-0.5" y="164.5" width="165" height="165"/>
				</defs>
				<clipPath id="SVGID_68_">
					<use xlink:href="#SVGID_67_"  overflow="visible"/>
				</clipPath>
				
					<rect x="59" y="211.8" clip-path="url(#SVGID_68_)" fill-rule="evenodd" clip-rule="evenodd" fill="#68B4D6" width="16.8" height="13"/>
			</g>
		</g>
	</g>
	<g clip-path="url(#SVGID_2_)">
		<defs>
			<rect id="SVGID_69_" x="-332.6" y="-552.2" width="1494.3" height="2006.8"/>
		</defs>
		<clipPath id="SVGID_70_">
			<use xlink:href="#SVGID_69_"  overflow="visible"/>
		</clipPath>
		<g clip-path="url(#SVGID_70_)">
			<defs>
				<path id="SVGID_71_" d="M69.1,217c0,0.3,0.4,0.6,0.8,0.6c0.4,0,0.8-0.3,0.8-0.6c0-0.3-0.4-0.6-0.8-0.6
					C69.4,216.4,69.1,216.7,69.1,217"/>
			</defs>
			<clipPath id="SVGID_72_">
				<use xlink:href="#SVGID_71_"  overflow="visible"/>
			</clipPath>
			<g clip-path="url(#SVGID_72_)">
				<defs>
					<rect id="SVGID_73_" x="-0.5" y="164.5" width="165" height="165"/>
				</defs>
				<clipPath id="SVGID_74_">
					<use xlink:href="#SVGID_73_"  overflow="visible"/>
				</clipPath>
				
					<rect x="63.9" y="211.3" clip-path="url(#SVGID_74_)" fill-rule="evenodd" clip-rule="evenodd" fill="#68B4D6" width="12" height="11.5"/>
			</g>
		</g>
	</g>
	<g clip-path="url(#SVGID_2_)">
		<defs>
			<rect id="SVGID_75_" x="-332.6" y="-552.2" width="1494.3" height="2006.8"/>
		</defs>
		<clipPath id="SVGID_76_">
			<use xlink:href="#SVGID_75_"  overflow="visible"/>
		</clipPath>
		<g clip-path="url(#SVGID_76_)">
			<defs>
				<rect id="SVGID_77_" x="64.2" y="264.7" width="6.5" height="1.3"/>
			</defs>
			<clipPath id="SVGID_78_">
				<use xlink:href="#SVGID_77_"  overflow="visible"/>
			</clipPath>
			<g clip-path="url(#SVGID_78_)">
				<defs>
					<rect id="SVGID_79_" x="-0.5" y="164.5" width="165" height="165"/>
				</defs>
				<clipPath id="SVGID_80_">
					<use xlink:href="#SVGID_79_"  overflow="visible"/>
				</clipPath>
				
					<rect x="59" y="259.6" clip-path="url(#SVGID_80_)" fill-rule="evenodd" clip-rule="evenodd" fill="#68B4D6" width="16.8" height="11.6"/>
			</g>
		</g>
	</g>
	<g clip-path="url(#SVGID_2_)">
		<defs>
			<rect id="SVGID_81_" x="-332.6" y="-552.2" width="1494.3" height="2006.8"/>
		</defs>
		<clipPath id="SVGID_82_">
			<use xlink:href="#SVGID_81_"  overflow="visible"/>
		</clipPath>
		<g clip-path="url(#SVGID_82_)">
			<defs>
				<path id="SVGID_83_" d="M69.1,266c0-0.2,0.4-0.3,0.8-0.3c0.4,0,0.8,0.1,0.8,0.3s-0.4,0.3-0.8,0.3
					C69.4,266.3,69.1,266.2,69.1,266"/>
			</defs>
			<clipPath id="SVGID_84_">
				<use xlink:href="#SVGID_83_"  overflow="visible"/>
			</clipPath>
			<g clip-path="url(#SVGID_84_)">
				<defs>
					<rect id="SVGID_85_" x="-0.5" y="164.5" width="165" height="165"/>
				</defs>
				<clipPath id="SVGID_86_">
					<use xlink:href="#SVGID_85_"  overflow="visible"/>
				</clipPath>
				
					<rect x="63.9" y="260.6" clip-path="url(#SVGID_86_)" fill-rule="evenodd" clip-rule="evenodd" fill="#68B4D6" width="12" height="10.9"/>
			</g>
		</g>
	</g>
	<g clip-path="url(#SVGID_2_)">
		<defs>
			<rect id="SVGID_87_" x="-332.6" y="-552.2" width="1494.3" height="2006.8"/>
		</defs>
		<clipPath id="SVGID_88_">
			<use xlink:href="#SVGID_87_"  overflow="visible"/>
		</clipPath>
		<g clip-path="url(#SVGID_88_)">
			<defs>
				<rect id="SVGID_89_" x="92.1" y="264.7" width="6.5" height="1.3"/>
			</defs>
			<clipPath id="SVGID_90_">
				<use xlink:href="#SVGID_89_"  overflow="visible"/>
			</clipPath>
			<g clip-path="url(#SVGID_90_)">
				<defs>
					<rect id="SVGID_91_" x="-0.5" y="164.5" width="165" height="165"/>
				</defs>
				<clipPath id="SVGID_92_">
					<use xlink:href="#SVGID_91_"  overflow="visible"/>
				</clipPath>
				
					<rect x="86.9" y="259.6" clip-path="url(#SVGID_92_)" fill-rule="evenodd" clip-rule="evenodd" fill="#68B4D6" width="16.8" height="11.6"/>
			</g>
		</g>
	</g>
	<g clip-path="url(#SVGID_2_)">
		<defs>
			<rect id="SVGID_93_" x="-332.6" y="-552.2" width="1494.3" height="2006.8"/>
		</defs>
		<clipPath id="SVGID_94_">
			<use xlink:href="#SVGID_93_"  overflow="visible"/>
		</clipPath>
		<g clip-path="url(#SVGID_94_)">
			<defs>
				<path id="SVGID_95_" d="M93.7,266c0-0.2-0.4-0.3-0.8-0.3c-0.4,0-0.8,0.1-0.8,0.3s0.4,0.3,0.8,0.3
					C93.3,266.3,93.7,266.2,93.7,266"/>
			</defs>
			<clipPath id="SVGID_96_">
				<use xlink:href="#SVGID_95_"  overflow="visible"/>
			</clipPath>
			<g clip-path="url(#SVGID_96_)">
				<defs>
					<rect id="SVGID_97_" x="-0.5" y="164.5" width="165" height="165"/>
				</defs>
				<clipPath id="SVGID_98_">
					<use xlink:href="#SVGID_97_"  overflow="visible"/>
				</clipPath>
				
					<rect x="86.9" y="260.6" clip-path="url(#SVGID_98_)" fill-rule="evenodd" clip-rule="evenodd" fill="#68B4D6" width="12" height="10.9"/>
			</g>
		</g>
	</g>
	<g clip-path="url(#SVGID_2_)">
		<defs>
			<rect id="SVGID_99_" x="-332.6" y="-552.2" width="1494.3" height="2006.8"/>
		</defs>
		<clipPath id="SVGID_100_">
			<use xlink:href="#SVGID_99_"  overflow="visible"/>
		</clipPath>
		<g clip-path="url(#SVGID_100_)">
			<defs>
				<rect id="SVGID_101_" x="92.1" y="217" width="6.5" height="2.7"/>
			</defs>
			<clipPath id="SVGID_102_">
				<use xlink:href="#SVGID_101_"  overflow="visible"/>
			</clipPath>
			<g clip-path="url(#SVGID_102_)">
				<defs>
					<rect id="SVGID_103_" x="-0.5" y="164.5" width="165" height="165"/>
				</defs>
				<clipPath id="SVGID_104_">
					<use xlink:href="#SVGID_103_"  overflow="visible"/>
				</clipPath>
				
					<rect x="86.9" y="211.8" clip-path="url(#SVGID_104_)" fill-rule="evenodd" clip-rule="evenodd" fill="#68B4D6" width="16.8" height="13"/>
			</g>
		</g>
	</g>
	<g clip-path="url(#SVGID_2_)">
		<defs>
			<rect id="SVGID_105_" x="-332.6" y="-552.2" width="1494.3" height="2006.8"/>
		</defs>
		<clipPath id="SVGID_106_">
			<use xlink:href="#SVGID_105_"  overflow="visible"/>
		</clipPath>
		<g clip-path="url(#SVGID_106_)">
			<defs>
				<path id="SVGID_107_" d="M93.7,217c0,0.3-0.4,0.6-0.8,0.6s-0.8-0.3-0.8-0.6c0-0.3,0.4-0.6,0.8-0.6S93.7,216.7,93.7,217"/>
			</defs>
			<clipPath id="SVGID_108_">
				<use xlink:href="#SVGID_107_"  overflow="visible"/>
			</clipPath>
			<g clip-path="url(#SVGID_108_)">
				<defs>
					<rect id="SVGID_109_" x="-0.5" y="164.5" width="165" height="165"/>
				</defs>
				<clipPath id="SVGID_110_">
					<use xlink:href="#SVGID_109_"  overflow="visible"/>
				</clipPath>
				
					<rect x="86.9" y="211.3" clip-path="url(#SVGID_110_)" fill-rule="evenodd" clip-rule="evenodd" fill="#68B4D6" width="12" height="11.5"/>
			</g>
		</g>
	</g>
	<g clip-path="url(#SVGID_2_)">
		<defs>
			<rect id="SVGID_111_" x="-332.6" y="-552.2" width="1494.3" height="2006.8"/>
		</defs>
		<clipPath id="SVGID_112_">
			<use xlink:href="#SVGID_111_"  overflow="visible"/>
		</clipPath>
		<g clip-path="url(#SVGID_112_)">
			<defs>
				<path id="SVGID_113_" d="M69.9,266.3H64c-0.5,0-0.9-0.4-0.9-0.9v-48c0-0.5,0.4-0.9,0.9-0.9h5.9c0,0-0.1,0-0.3,0.2
					c-0.1,0.1-0.1,0.4-0.1,0.4v48.7c0,0,0,0.3,0.1,0.4C69.8,266.3,69.9,266.3,69.9,266.3"/>
			</defs>
			<clipPath id="SVGID_114_">
				<use xlink:href="#SVGID_113_"  overflow="visible"/>
			</clipPath>
			<g clip-path="url(#SVGID_114_)">
				<defs>
					<rect id="SVGID_115_" x="-0.5" y="164.5" width="165" height="165"/>
				</defs>
				<clipPath id="SVGID_116_">
					<use xlink:href="#SVGID_115_"  overflow="visible"/>
				</clipPath>
				
					<rect x="57.8" y="211.3" clip-path="url(#SVGID_116_)" fill-rule="evenodd" clip-rule="evenodd" fill="#9BCCE3" width="17.3" height="60.2"/>
			</g>
		</g>
	</g>
	<g clip-path="url(#SVGID_2_)">
		<defs>
			<rect id="SVGID_117_" x="-332.6" y="-552.2" width="1494.3" height="2006.8"/>
		</defs>
		<clipPath id="SVGID_118_">
			<use xlink:href="#SVGID_117_"  overflow="visible"/>
		</clipPath>
		<g clip-path="url(#SVGID_118_)">
			<defs>
				<path id="SVGID_119_" d="M98.9,266.3h-6c0,0,0.3-0.1,0.3-0.2c0.1-0.1,0.1-0.4,0.1-0.4V217c0,0,0-0.2-0.1-0.3
					c-0.1-0.2-0.3-0.2-0.3-0.2h5.9c0.5,0,1,0.4,1,1v48C99.8,265.9,99.4,266.3,98.9,266.3"/>
			</defs>
			<clipPath id="SVGID_120_">
				<use xlink:href="#SVGID_119_"  overflow="visible"/>
			</clipPath>
			<g clip-path="url(#SVGID_120_)">
				<defs>
					<rect id="SVGID_121_" x="-0.5" y="164.5" width="165" height="165"/>
				</defs>
				<clipPath id="SVGID_122_">
					<use xlink:href="#SVGID_121_"  overflow="visible"/>
				</clipPath>
				
					<rect x="87.7" y="211.3" clip-path="url(#SVGID_122_)" fill-rule="evenodd" clip-rule="evenodd" fill="#9BCCE3" width="17.3" height="60.2"/>
			</g>
		</g>
	</g>
	<g clip-path="url(#SVGID_2_)">
		<defs>
			<rect id="SVGID_123_" x="-332.6" y="-552.2" width="1494.3" height="2006.8"/>
		</defs>
		<clipPath id="SVGID_124_">
			<use xlink:href="#SVGID_123_"  overflow="visible"/>
		</clipPath>
		<g clip-path="url(#SVGID_124_)">
			<defs>
				<rect id="SVGID_125_" x="62.3" y="253.2" width="7.9" height="2.7"/>
			</defs>
			<clipPath id="SVGID_126_">
				<use xlink:href="#SVGID_125_"  overflow="visible"/>
			</clipPath>
			<g clip-path="url(#SVGID_126_)">
				<defs>
					<rect id="SVGID_127_" x="-0.5" y="164.5" width="165" height="165"/>
				</defs>
				<clipPath id="SVGID_128_">
					<use xlink:href="#SVGID_127_"  overflow="visible"/>
				</clipPath>
				
					<rect x="57.1" y="248" clip-path="url(#SVGID_128_)" fill-rule="evenodd" clip-rule="evenodd" fill="#0480BA" width="18.2" height="13"/>
			</g>
		</g>
	</g>
	<g clip-path="url(#SVGID_2_)">
		<defs>
			<rect id="SVGID_129_" x="-332.6" y="-552.2" width="1494.3" height="2006.8"/>
		</defs>
		<clipPath id="SVGID_130_">
			<use xlink:href="#SVGID_129_"  overflow="visible"/>
		</clipPath>
		<g clip-path="url(#SVGID_130_)">
			<defs>
				<rect id="SVGID_131_" x="65.3" y="254.5" width="1.8" height="2.6"/>
			</defs>
			<clipPath id="SVGID_132_">
				<use xlink:href="#SVGID_131_"  overflow="visible"/>
			</clipPath>
			<g clip-path="url(#SVGID_132_)">
				<defs>
					<rect id="SVGID_133_" x="-0.5" y="164.5" width="165" height="165"/>
				</defs>
				<clipPath id="SVGID_134_">
					<use xlink:href="#SVGID_133_"  overflow="visible"/>
				</clipPath>
				
					<rect x="60.2" y="249.4" clip-path="url(#SVGID_134_)" fill-rule="evenodd" clip-rule="evenodd" fill="#0480BA" width="12.2" height="12.9"/>
			</g>
		</g>
	</g>
	<g clip-path="url(#SVGID_2_)">
		<defs>
			<rect id="SVGID_135_" x="-332.6" y="-552.2" width="1494.3" height="2006.8"/>
		</defs>
		<clipPath id="SVGID_136_">
			<use xlink:href="#SVGID_135_"  overflow="visible"/>
		</clipPath>
		<g clip-path="url(#SVGID_136_)">
			<defs>
				<rect id="SVGID_137_" x="92.6" y="253.1" width="7.9" height="2.7"/>
			</defs>
			<clipPath id="SVGID_138_">
				<use xlink:href="#SVGID_137_"  overflow="visible"/>
			</clipPath>
			<g clip-path="url(#SVGID_138_)">
				<defs>
					<rect id="SVGID_139_" x="-0.5" y="164.5" width="165" height="165"/>
				</defs>
				<clipPath id="SVGID_140_">
					<use xlink:href="#SVGID_139_"  overflow="visible"/>
				</clipPath>
				
					<rect x="87.4" y="247.9" clip-path="url(#SVGID_140_)" fill-rule="evenodd" clip-rule="evenodd" fill="#0480BA" width="18.2" height="13"/>
			</g>
		</g>
	</g>
	<g clip-path="url(#SVGID_2_)">
		<defs>
			<rect id="SVGID_141_" x="-332.6" y="-552.2" width="1494.3" height="2006.8"/>
		</defs>
		<clipPath id="SVGID_142_">
			<use xlink:href="#SVGID_141_"  overflow="visible"/>
		</clipPath>
		<g clip-path="url(#SVGID_142_)">
			<defs>
				<rect id="SVGID_143_" x="95.5" y="254.4" width="2.1" height="3"/>
			</defs>
			<clipPath id="SVGID_144_">
				<use xlink:href="#SVGID_143_"  overflow="visible"/>
			</clipPath>
			<g clip-path="url(#SVGID_144_)">
				<defs>
					<rect id="SVGID_145_" x="-0.5" y="164.5" width="165" height="165"/>
				</defs>
				<clipPath id="SVGID_146_">
					<use xlink:href="#SVGID_145_"  overflow="visible"/>
				</clipPath>
				
					<rect x="90.3" y="249.3" clip-path="url(#SVGID_146_)" fill-rule="evenodd" clip-rule="evenodd" fill="#0480BA" width="12.5" height="13.3"/>
			</g>
		</g>
	</g>
	<g clip-path="url(#SVGID_2_)">
		<defs>
			<rect id="SVGID_147_" x="-332.6" y="-552.2" width="1494.3" height="2006.8"/>
		</defs>
		<clipPath id="SVGID_148_">
			<use xlink:href="#SVGID_147_"  overflow="visible"/>
		</clipPath>
		<g clip-path="url(#SVGID_148_)">
			<defs>
				<path id="SVGID_149_" d="M72.6,289.1c0,2.7-2.8,7.4-4.7,10.2c-0.8,1.2-2.4,1.2-3.2,0c-1.8-2.8-4.5-7.5-4.5-10.2
					c0-4.1,2.8-7.3,6.2-7.3C69.8,281.8,72.6,285.1,72.6,289.1"/>
			</defs>
			<clipPath id="SVGID_150_">
				<use xlink:href="#SVGID_149_"  overflow="visible"/>
			</clipPath>
			<g clip-path="url(#SVGID_150_)">
				<defs>
					<rect id="SVGID_151_" x="-0.5" y="164.5" width="165" height="165"/>
				</defs>
				<clipPath id="SVGID_152_">
					<use xlink:href="#SVGID_151_"  overflow="visible"/>
				</clipPath>
				
					<rect x="55" y="276.6" clip-path="url(#SVGID_152_)" fill-rule="evenodd" clip-rule="evenodd" fill="#F7B363" width="22.8" height="28.8"/>
			</g>
		</g>
	</g>
	<g clip-path="url(#SVGID_2_)">
		<defs>
			<rect id="SVGID_153_" x="-332.6" y="-552.2" width="1494.3" height="2006.8"/>
		</defs>
		<clipPath id="SVGID_154_">
			<use xlink:href="#SVGID_153_"  overflow="visible"/>
		</clipPath>
		<g clip-path="url(#SVGID_154_)">
			<defs>
				<path id="SVGID_155_" d="M70,285.3c0,1.3-1.7,3.6-2.7,5c-0.5,0.6-1.4,0.6-1.9,0c-1-1.4-2.6-3.6-2.6-5c0-2,1.6-3.6,3.6-3.6
					C68.4,281.8,70,283.4,70,285.3"/>
			</defs>
			<clipPath id="SVGID_156_">
				<use xlink:href="#SVGID_155_"  overflow="visible"/>
			</clipPath>
			<g clip-path="url(#SVGID_156_)">
				<defs>
					<rect id="SVGID_157_" x="-0.5" y="164.5" width="165" height="165"/>
				</defs>
				<clipPath id="SVGID_158_">
					<use xlink:href="#SVGID_157_"  overflow="visible"/>
				</clipPath>
				
					<rect x="57.6" y="276.6" clip-path="url(#SVGID_158_)" fill-rule="evenodd" clip-rule="evenodd" fill="#F45656" width="17.6" height="19.3"/>
			</g>
		</g>
	</g>
	<g clip-path="url(#SVGID_2_)">
		<defs>
			<rect id="SVGID_159_" x="-332.6" y="-552.2" width="1494.3" height="2006.8"/>
		</defs>
		<clipPath id="SVGID_160_">
			<use xlink:href="#SVGID_159_"  overflow="visible"/>
		</clipPath>
		<g clip-path="url(#SVGID_160_)">
			<defs>
				<path id="SVGID_161_" d="M102.8,289.1c0,2.7-2.8,7.4-4.7,10.2c-0.8,1.2-2.4,1.2-3.2,0c-1.8-2.8-4.5-7.5-4.5-10.2
					c0-4.1,2.8-7.3,6.2-7.3C100,281.8,102.8,285.1,102.8,289.1"/>
			</defs>
			<clipPath id="SVGID_162_">
				<use xlink:href="#SVGID_161_"  overflow="visible"/>
			</clipPath>
			<g clip-path="url(#SVGID_162_)">
				<defs>
					<rect id="SVGID_163_" x="-0.5" y="164.5" width="165" height="165"/>
				</defs>
				<clipPath id="SVGID_164_">
					<use xlink:href="#SVGID_163_"  overflow="visible"/>
				</clipPath>
				
					<rect x="85.2" y="276.6" clip-path="url(#SVGID_164_)" fill-rule="evenodd" clip-rule="evenodd" fill="#F7B363" width="22.8" height="28.8"/>
			</g>
		</g>
	</g>
	<g clip-path="url(#SVGID_2_)">
		<defs>
			<rect id="SVGID_165_" x="-332.6" y="-552.2" width="1494.3" height="2006.8"/>
		</defs>
		<clipPath id="SVGID_166_">
			<use xlink:href="#SVGID_165_"  overflow="visible"/>
		</clipPath>
		<g clip-path="url(#SVGID_166_)">
			<defs>
				<path id="SVGID_167_" d="M100.2,285.3c0,1.3-1.7,3.6-2.7,5c-0.5,0.6-1.4,0.6-1.9,0c-1-1.4-2.6-3.6-2.6-5c0-2,1.6-3.6,3.6-3.6
					C98.6,281.8,100.2,283.4,100.2,285.3"/>
			</defs>
			<clipPath id="SVGID_168_">
				<use xlink:href="#SVGID_167_"  overflow="visible"/>
			</clipPath>
			<g clip-path="url(#SVGID_168_)">
				<defs>
					<rect id="SVGID_169_" x="-0.5" y="164.5" width="165" height="165"/>
				</defs>
				<clipPath id="SVGID_170_">
					<use xlink:href="#SVGID_169_"  overflow="visible"/>
				</clipPath>
				
					<rect x="87.8" y="276.6" clip-path="url(#SVGID_170_)" fill-rule="evenodd" clip-rule="evenodd" fill="#F45656" width="17.6" height="19.3"/>
			</g>
		</g>
	</g>
	<g clip-path="url(#SVGID_2_)">
		<defs>
			<rect id="SVGID_171_" x="-332.6" y="-552.2" width="1494.3" height="2006.8"/>
		</defs>
		<clipPath id="SVGID_172_">
			<use xlink:href="#SVGID_171_"  overflow="visible"/>
		</clipPath>
		<g clip-path="url(#SVGID_172_)">
			<defs>
				<path id="SVGID_173_" d="M80.2,207.2c-2.5-5.6-9-13.4-13.7-13.4c-4.7,0-11.2,7.8-13.7,13.4h0c0,0,2.7,1,6,1.6
					c2.8,0.5,5.9,0.7,7.5,0.7c1.6,0,4.8-0.2,7.6-0.7C77.3,208.2,80.2,207.2,80.2,207.2L80.2,207.2"/>
			</defs>
			<clipPath id="SVGID_174_">
				<use xlink:href="#SVGID_173_"  overflow="visible"/>
			</clipPath>
			<g clip-path="url(#SVGID_174_)">
				<defs>
					<rect id="SVGID_175_" x="-0.5" y="164.5" width="165" height="165"/>
				</defs>
				<clipPath id="SVGID_176_">
					<use xlink:href="#SVGID_175_"  overflow="visible"/>
				</clipPath>
				
					<rect x="47.6" y="188.6" clip-path="url(#SVGID_176_)" fill-rule="evenodd" clip-rule="evenodd" fill="#B4B6B9" width="37.8" height="26"/>
			</g>
		</g>
	</g>
	<g clip-path="url(#SVGID_2_)">
		<defs>
			<rect id="SVGID_177_" x="-332.6" y="-552.2" width="1494.3" height="2006.8"/>
		</defs>
		<clipPath id="SVGID_178_">
			<use xlink:href="#SVGID_177_"  overflow="visible"/>
		</clipPath>
		<g clip-path="url(#SVGID_178_)">
			<defs>
				<path id="SVGID_179_" d="M110.3,207.2c-2.5-5.6-9-13.4-13.7-13.4c-4.7,0-11.2,7.8-13.7,13.4h0c0,0,2.7,1,6,1.6
					c2.8,0.5,5.9,0.7,7.5,0.7c1.6,0,4.8-0.2,7.6-0.7C107.4,208.2,110.3,207.2,110.3,207.2L110.3,207.2"/>
			</defs>
			<clipPath id="SVGID_180_">
				<use xlink:href="#SVGID_179_"  overflow="visible"/>
			</clipPath>
			<g clip-path="url(#SVGID_180_)">
				<defs>
					<rect id="SVGID_181_" x="-0.5" y="164.5" width="165" height="165"/>
				</defs>
				<clipPath id="SVGID_182_">
					<use xlink:href="#SVGID_181_"  overflow="visible"/>
				</clipPath>
				
					<rect x="77.7" y="188.6" clip-path="url(#SVGID_182_)" fill-rule="evenodd" clip-rule="evenodd" fill="#B4B6B9" width="37.8" height="26"/>
			</g>
		</g>
	</g>
</g>
</svg>
