<?xml version="1.0" encoding="utf-8"?>
<!-- Generator: Adobe Illustrator 18.1.0, SVG Export Plug-In . SVG Version: 6.00 Build 0)  -->
<!DOCTYPE svg PUBLIC "-//W3C//DTD SVG 1.1//EN" "http://www.w3.org/Graphics/SVG/1.1/DTD/svg11.dtd">
<svg version="1.1" id="Layer_1" xmlns="http://www.w3.org/2000/svg" xmlns:xlink="http://www.w3.org/1999/xlink" x="0px" y="0px"
	 viewBox="0 0 165 165" enable-background="new 0 0 165 165" xml:space="preserve">
<g>
	<g>
		<circle fill="#C3E1EF" cx="82.5" cy="82.5" r="82.5"/>
	</g>
</g>
<g>
	<g>
		<g>
			<g>
				<g>
					<g>
						<g>
							<path fill="#8E9394" d="M87,120.9c-26.2,0-47.5-21.3-47.5-47.5c0-20,12.7-38,31.5-44.8l1.5,4.1
								c-17.2,6.1-28.7,22.5-28.7,40.7c0,23.8,19.4,43.2,43.2,43.2c5,0,9.9-0.8,14.5-2.5l1.5,4.1C97.9,119.9,92.5,120.9,87,120.9z"
								/>
						</g>
					</g>
				</g>
				<g>
					<g>
						<rect x="83.3" y="118.3" fill="#8E9394" width="7.4" height="13.9"/>
					</g>
				</g>
				<g>
					<g>
						<path fill="#8E9394" d="M103.8,141.6H70.2v-7.4c0-1.1,0.9-2,2-2h29.7c1.1,0,2,0.9,2,2V141.6z"/>
					</g>
				</g>
				<g>
					<g>
						<path fill="#B5B6B9" d="M104.1,122.9c-0.7,0-1.4-0.4-1.6-1.2L68.2,25.7c-0.3-0.9,0.1-1.9,1.1-2.2s1.9,0.1,2.2,1.1l34.3,96.1
							c0.3,0.9-0.1,1.9-1.1,2.2C104.5,122.9,104.3,122.9,104.1,122.9z"/>
					</g>
				</g>
				<g>
					<g>
						<path fill="#69B4D7" d="M104.4,38.9c12.5,6.4,21.1,19.4,21.1,34.4c0,21.3-17.3,38.5-38.5,38.5S48.5,94.6,48.5,73.3
							S65.7,34.8,87,34.8C93.3,34.8,99.2,36.3,104.4,38.9"/>
					</g>
				</g>
			</g>
			<g opacity="0.2">
				<g>
					<g>
						<g>
							<path fill="#69B4D7" d="M123.3,60.8c0.1,0.4,0.3,0.7,0.4,1.1c2.5,7.9,2.4,16,0,23.4c-0.2,0.7-0.5,1.4-0.8,2.1
								c-1.9,4.9-4.8,9.4-8.5,13.2c-0.5,0.5-1.1,1.1-1.7,1.6c-3.1,2.8-6.8,5.2-10.9,6.9c0,0,0,0,0,0c-0.2,0.1-0.5,0.2-0.7,0.3
								c-0.2,0.1-0.4,0.2-0.6,0.3c-0.2,0.1-0.5,0.2-0.7,0.3c-0.1,0-0.1,0-0.2,0.1l0,0c0,0-0.1,0-0.1,0.1c-0.1,0-0.1,0-0.2,0.1
								c-0.1,0-0.1,0.1-0.2,0.1c-0.2,0.1-0.5,0.2-0.7,0.2c-0.2,0.1-0.5,0.1-0.7,0.2c-0.3,0.1-0.5,0.2-0.8,0.2c0,0,0,0,0,0
								c-4,1.1-8,1.4-12,1.2c-0.8,0-1.5-0.1-2.3-0.2c-5.3-0.6-10.3-2.3-14.9-5c-0.7-0.4-1.3-0.8-1.9-1.2C59.2,101.4,54,95.1,51,87.4
								c-0.1-0.4-0.3-0.7-0.4-1.1c-0.1-0.4-0.3-0.7-0.4-1.1c-2.5-7.9-2.3-16,0-23.4c0.2-0.7,0.5-1.4,0.8-2.1
								c1.9-4.9,4.8-9.4,8.5-13.2c0.5-0.5,1.1-1.1,1.7-1.6c2.9-2.6,6.2-4.8,9.8-6.4c0.3-0.2,0.7-0.3,1.1-0.5
								c0.2-0.1,0.4-0.2,0.7-0.3c0.2-0.1,0.5-0.2,0.7-0.3c0.1,0,0.2-0.1,0.3-0.1c0,0,0,0,0,0c0,0,0,0,0,0c0.1,0,0.2-0.1,0.3-0.1
								c0.2-0.1,0.5-0.2,0.7-0.2c0.2-0.1,0.4-0.1,0.7-0.2c0.3-0.1,0.7-0.2,1-0.3c0,0,0,0,0,0c4.2-1.2,8.4-1.6,12.6-1.4
								c0.8,0,1.5,0.1,2.3,0.2c5.3,0.6,10.3,2.3,14.9,5c0.7,0.4,1.3,0.8,1.9,1.2c6.5,4.3,11.7,10.5,14.7,18.2
								C123.1,60,123.2,60.4,123.3,60.8z"/>
						</g>
					</g>
				</g>
				<g>
					<g>
						<g>
							
								<rect x="48.1" y="72.5" transform="matrix(-0.3318 -0.9433 0.9433 -0.3318 45.8746 179.8282)" fill="#3699C9" width="77.1" height="2.3"/>
						</g>
					</g>
				</g>
				<g>
					<g>
						<g>
							<path fill="#3699C9" d="M89.2,35.1c-0.2,1.4-0.9,2.9-1.9,4.2c-0.5,0.7-1.1,1.3-1.7,1.9c-0.6,0.5-1.2,1-1.8,1.5
								c-0.7,0.5-1.4,1-2.2,1.4c-1.1,0.6-2.2,1.2-3.5,1.7c-0.2,0.1-0.5,0.2-0.7,0.3c-0.5,0.2-1,0.3-1.5,0.5
								c-1.2,0.4-2.5,0.6-3.7,0.8c-0.9,0.1-1.7,0.2-2.6,0.2c-0.8,0-1.5,0-2.2-0.1c-0.9-0.1-1.7-0.3-2.5-0.5c-1.5-0.4-2.7-1.1-3.7-2
								c-0.6,0.5-1.1,1-1.7,1.6c1.1,1,2.5,1.8,4.1,2.4c0.8,0.3,1.5,0.5,2.4,0.6c0.9,0.2,1.9,0.3,2.9,0.3c0.8,0,1.7,0,2.5-0.1
								c1.7-0.1,3.4-0.4,5.2-1c0.5-0.1,1-0.3,1.5-0.5c0.2-0.1,0.5-0.2,0.7-0.3c1.8-0.7,3.4-1.5,4.8-2.4c0.7-0.5,1.4-1,2-1.5
								c0.8-0.7,1.6-1.4,2.2-2.1c0.6-0.6,1.1-1.3,1.5-1.9c1.1-1.6,1.8-3.2,2-4.8C90.7,35.2,90,35.1,89.2,35.1z"/>
						</g>
					</g>
				</g>
				<g>
					<g>
						<g>
							<path fill="#3699C9" d="M106.3,40.2c-1.2,2.1-2.8,4.1-4.6,6c-0.5,0.6-1.1,1.1-1.7,1.7c-1.6,1.5-3.4,2.9-5.4,4.3
								c-0.7,0.4-1.3,0.9-2,1.3c-3.1,1.9-6.5,3.5-10.1,4.9c-0.2,0.1-0.5,0.2-0.7,0.3c-0.5,0.2-1,0.3-1.5,0.5
								c-3.7,1.2-7.4,2-10.9,2.4c-0.8,0.1-1.6,0.2-2.4,0.2c-2.3,0.2-4.6,0.1-6.8,0c-0.8-0.1-1.6-0.2-2.4-0.3
								c-2.4-0.3-4.7-0.9-6.7-1.7c-0.3,0.7-0.5,1.4-0.8,2.1c2.1,0.8,4.4,1.4,6.8,1.7c0.8,0.1,1.6,0.2,2.4,0.3
								c2.4,0.2,4.9,0.3,7.4,0.1c0.8,0,1.6-0.1,2.4-0.2c3.8-0.4,7.8-1.2,11.8-2.5c0.5-0.2,1-0.3,1.5-0.5c0.2-0.1,0.5-0.2,0.7-0.3
								c3.9-1.4,7.6-3.2,10.9-5.3c0.7-0.4,1.3-0.9,2-1.3c2.1-1.5,4.1-3.1,5.9-4.7c0.6-0.5,1.1-1.1,1.7-1.7c1.8-2,3.4-4,4.6-6.1
								C107.6,41,107,40.6,106.3,40.2z"/>
						</g>
					</g>
				</g>
				<g>
					<g>
						<g>
							<path fill="#3699C9" d="M115.9,83.4c-0.8-0.1-1.6-0.2-2.4-0.2c-2.4-0.2-4.9-0.2-7.4,0c-0.8,0.1-1.6,0.1-2.3,0.2
								c-3.8,0.5-7.7,1.3-11.6,2.7c-0.2,0.1-0.5,0.2-0.7,0.2c-0.5,0.2-1,0.3-1.5,0.5c-3.8,1.5-7.4,3.3-10.6,5.3
								c-0.7,0.4-1.3,0.9-2,1.3c-2.1,1.5-4,3-5.7,4.6c-0.6,0.6-1.1,1.1-1.7,1.7c-1.8,1.9-3.3,3.9-4.5,5.9c0.6,0.4,1.3,0.8,1.9,1.2
								c1.2-2,2.7-3.9,4.5-5.8c0.5-0.6,1.1-1.1,1.7-1.7c1.6-1.5,3.3-2.9,5.2-4.2c0.6-0.4,1.3-0.9,2-1.3c3-1.9,6.3-3.5,9.8-4.9
								c0.5-0.2,1-0.4,1.5-0.5c0.2-0.1,0.5-0.2,0.7-0.2c3.6-1.2,7.2-2.1,10.7-2.5c0.8-0.1,1.6-0.2,2.4-0.3c2.3-0.2,4.6-0.2,6.8-0.1
								c0.8,0,1.6,0.1,2.4,0.2c2.8,0.3,5.4,0.9,7.7,1.8c0.3-0.7,0.5-1.4,0.8-2.1C121.3,84.4,118.7,83.7,115.9,83.4z"/>
						</g>
					</g>
				</g>
				<g>
					<g>
						<g>
							<path fill="#3699C9" d="M109.4,97.9c-0.8-0.2-1.6-0.4-2.4-0.5c-1-0.1-2-0.2-3-0.2c-0.8,0-1.6,0.1-2.5,0.2
								c-1.6,0.2-3.3,0.5-4.9,1.1c-0.2,0.1-0.5,0.2-0.7,0.2c-0.5,0.2-1,0.4-1.5,0.6c-1.6,0.7-3,1.4-4.4,2.3c-0.7,0.5-1.4,0.9-2,1.5
								c-0.8,0.6-1.5,1.3-2.1,2c-0.6,0.6-1.1,1.3-1.5,1.9c-1,1.6-1.7,3.2-2,4.8c0.8,0.1,1.5,0.2,2.3,0.2c0.2-1.4,0.9-2.8,1.9-4.2
								c0.5-0.6,1-1.3,1.7-1.9c0.5-0.5,1.1-1,1.7-1.5c0.7-0.5,1.4-1,2.1-1.4c0.9-0.6,2-1.1,3-1.5c0.5-0.2,1-0.4,1.5-0.6
								c0.2-0.1,0.5-0.2,0.7-0.2c1.1-0.4,2.3-0.6,3.4-0.8c0.9-0.1,1.7-0.2,2.5-0.3c0.8,0,1.6,0,2.4,0c0.9,0.1,1.7,0.2,2.5,0.4
								c1.9,0.4,3.4,1.2,4.6,2.2c0.6-0.5,1.1-1,1.7-1.6C113.1,99.4,111.4,98.5,109.4,97.9z"/>
						</g>
					</g>
				</g>
				<g>
					<g>
						<g>
							
								<rect x="48.5" y="72.4" transform="matrix(0.9433 -0.3318 0.3318 0.9433 -19.4728 33.0311)" fill="#3699C9" width="77.1" height="2.3"/>
						</g>
					</g>
				</g>
				<g>
					<g>
						<g>
							<path fill="#3699C9" d="M101.6,108.4l-0.5,1c-0.2,0.1-0.4,0.2-0.6,0.3l0,0l-0.9,0.3l0,0l0,0c-0.1,0-0.2-0.1-0.2-0.1
								c-0.1,0-0.1-0.1-0.2-0.1c-0.4-0.2-0.9-0.4-1.3-0.7c-0.2-0.1-0.4-0.2-0.6-0.3c-0.3-0.2-0.6-0.3-0.9-0.5
								c-2.2-1.2-4.4-2.5-6.3-3.8c-0.7-0.5-1.3-0.9-2-1.4c-3.4-2.5-6.5-5.1-9.1-7.9c-0.5-0.6-1-1.2-1.5-1.7
								c-3.3-3.9-5.8-8.1-7.6-12.6c-0.3-0.7-0.5-1.5-0.8-2.2c-0.1-0.4-0.3-0.8-0.4-1.2c-1.4-4.6-1.9-9.1-1.8-13.4
								c0-0.8,0-1.6,0.1-2.3c0.2-4.3,1-8.4,2-11.9c0.2-0.8,0.4-1.6,0.7-2.3c0.8-2.6,1.8-4.9,2.6-6.7c0.2-0.5,0.4-0.9,0.6-1.3
								c0.1-0.2,0.2-0.5,0.3-0.7c0.2-0.4,0.4-0.8,0.6-1.1c0.1-0.1,0.1-0.2,0.2-0.3c0,0,0,0,0,0l0,0l1.1-0.4l0,0
								c0.2-0.1,0.4-0.1,0.7-0.2l1,0.6c0,0-0.2,0.4-0.6,1c-0.1,0.1-0.1,0.2-0.2,0.3c-0.1,0.1-0.1,0.2-0.2,0.3
								c-0.2,0.4-0.5,0.9-0.7,1.5c-0.2,0.5-0.5,1-0.7,1.5c-0.7,1.5-1.4,3.3-2.1,5.4c-0.3,0.8-0.5,1.6-0.7,2.4
								c-1,3.4-1.8,7.4-2.1,11.7c-0.1,0.8-0.1,1.5-0.1,2.3c-0.1,4.1,0.4,8.5,1.7,12.9c0.1,0.4,0.2,0.7,0.3,1.1
								c0.2,0.7,0.5,1.5,0.8,2.2c1.7,4.3,4.1,8.4,7.3,12.1c0.5,0.6,1,1.2,1.6,1.7c2.6,2.8,5.6,5.4,9.1,7.8c0.7,0.5,1.4,1,2.1,1.4
								c1.4,0.9,3,1.9,4.6,2.7c0.5,0.3,1,0.6,1.5,0.8c0.5,0.3,1,0.5,1.5,0.8c0.1,0.1,0.2,0.1,0.3,0.2c0.1,0,0.1,0.1,0.2,0.1
								C100.7,107.9,101.2,108.1,101.6,108.4z"/>
						</g>
					</g>
				</g>
				<g>
					<g>
						<g>
							<path fill="#3699C9" d="M104.1,68.7c1.4,4.6,2.1,9.4,2,14.4c0,0.8,0,1.6-0.1,2.3c-0.3,3.8-0.9,7.7-2,11.8
								c-0.2,0.8-0.4,1.5-0.7,2.3c-0.7,2.4-1.6,4.7-2.6,7.2c-0.1,0.3-0.3,0.6-0.4,0.9c-0.1,0.2-0.2,0.4-0.3,0.6
								c-0.2,0.4-0.4,0.9-0.6,1.3c0,0.1-0.1,0.1-0.1,0.2c0,0.1-0.1,0.2-0.1,0.2c0,0,0,0,0,0l-0.9,0.3l0,0c-0.2,0.1-0.5,0.1-0.7,0.2
								l-1-0.5c0.2-0.5,0.4-0.9,0.6-1.4c0-0.1,0.1-0.2,0.1-0.2c0.1-0.1,0.1-0.2,0.2-0.4c0.2-0.5,0.5-1,0.7-1.6
								c0.2-0.5,0.5-1.1,0.7-1.6c0.7-1.7,1.3-3.4,1.9-5.1c0.3-0.8,0.5-1.6,0.8-2.4c1.2-4,1.9-7.9,2.2-11.7c0.1-0.8,0.1-1.6,0.1-2.4
								c0.1-4.9-0.5-9.5-1.9-13.9c-0.2-0.7-0.5-1.5-0.8-2.2c-0.1-0.4-0.3-0.7-0.4-1.1c-1.7-4.2-4-7.9-6.6-11c-0.5-0.6-1-1.2-1.5-1.8
								l0,0c-2.9-3.2-6-5.8-8.9-7.8c-0.7-0.5-1.4-1-2.1-1.4c-1.9-1.2-3.6-2.2-5.1-3c-0.5-0.3-1-0.5-1.5-0.8
								c-0.6-0.3-1.1-0.5-1.5-0.7c-0.1,0-0.2-0.1-0.3-0.1c-0.1-0.1-0.2-0.1-0.4-0.2c-0.7-0.3-1-0.4-1.1-0.4l0.4-1
								c0.2-0.1,0.4-0.2,0.7-0.3l0,0l1.1-0.4l0,0c0,0,0,0,0.1,0c0.1,0,0.2,0.1,0.3,0.1c0.3,0.1,0.7,0.3,1.2,0.5
								c0.2,0.1,0.4,0.2,0.7,0.3c0.4,0.2,0.8,0.4,1.3,0.6c1.8,0.9,4.1,2.2,6.5,3.8c0.6,0.4,1.3,0.9,2,1.4c2.9,2.1,6,4.8,8.9,8
								c0.5,0.6,1,1.2,1.5,1.8c2.6,3.3,5,7.1,6.8,11.4c0.2,0.4,0.3,0.8,0.5,1.2C103.7,67.3,103.9,68,104.1,68.7z"/>
						</g>
					</g>
				</g>
				<g>
					<g>
						<g>
							<path fill="#3699C9" d="M116.4,64.4c1.7,5.7,1.5,12.1-0.5,18.9c-0.2,0.7-0.4,1.5-0.7,2.2c-1.3,3.9-3.3,8.1-5.8,12.3
								c-0.4,0.7-0.8,1.4-1.2,2c-1.8,3-3.9,6-6.3,9.1c0,0,0,0,0,0c-0.2,0.1-0.5,0.2-0.7,0.3c-0.2,0.1-0.4,0.2-0.6,0.3l0,0l-0.7,0.3
								l-0.3-0.3l-0.2-0.2l-0.3-0.3c0.1-0.1,0.1-0.1,0.2-0.2c0.3-0.4,0.6-0.7,0.9-1.1c0.1-0.1,0.1-0.2,0.2-0.3
								c0.2-0.3,0.4-0.5,0.6-0.8c1.8-2.4,3.5-4.8,5-7.2c0.5-0.7,0.9-1.5,1.3-2.2c2.5-4.2,4.5-8.2,5.8-12.1c0.3-0.8,0.5-1.5,0.7-2.2
								c2-6.5,2.2-12.5,0.6-17.9c-0.2-0.8-0.5-1.5-0.7-2.2c0-0.1-0.1-0.1-0.1-0.2c-2.3-5.7-6.5-10.2-11.4-13.6
								c-0.6-0.5-1.3-0.9-2-1.3c-4-2.5-8.2-4.4-12.1-5.8l0,0c-0.8-0.3-1.6-0.6-2.4-0.8c-3.3-1.1-6.2-1.8-8.3-2.3
								c-0.5-0.1-1-0.2-1.4-0.3c-0.1,0-0.2,0-0.3-0.1c-0.6-0.1-1.1-0.2-1.3-0.2l0,0c-0.1,0-0.2,0-0.2,0l0-0.3l0.1-0.5l0-0.3l0.7-0.3
								l0,0c0.2-0.1,0.4-0.1,0.7-0.2c0.3-0.1,0.7-0.2,1-0.3c0,0,0,0,0,0c2.3,0.5,6.2,1.3,10.6,2.9c0.7,0.2,1.5,0.5,2.2,0.8
								c0.7,0.3,1.4,0.6,2.2,0.9c3.7,1.5,7.1,3.3,10.1,5.2c0.7,0.4,1.3,0.9,1.9,1.3c5.7,4.1,9.7,9,11.9,14.4c0,0.1,0.1,0.2,0.1,0.3
								C115.9,63,116.2,63.7,116.4,64.4z"/>
						</g>
					</g>
				</g>
				<g>
					<g>
						<g>
							<path fill="#3699C9" d="M99.3,109l-0.1,0.4l-0.1,0.3l-0.1,0.4l0,0l-0.7,0.3l0,0c-0.2,0.1-0.5,0.1-0.7,0.2
								c-0.3,0.1-0.5,0.2-0.8,0.2c0,0,0,0,0,0c-3.6-0.9-7-1.9-10.1-3c-0.7-0.3-1.5-0.5-2.2-0.8c-4.7-1.8-8.8-3.8-12.4-6
								c-0.7-0.4-1.3-0.8-1.9-1.3c-6-4.2-10.2-9.1-12.5-14.7c-0.3-0.7-0.6-1.5-0.8-2.2c0-0.1-0.1-0.2-0.1-0.3
								c-1.7-5.7-1.6-12.1,0.3-19c0.2-0.7,0.4-1.5,0.7-2.2c1.1-3.3,2.6-6.6,4.5-10.1c0.5-0.8,0.9-1.7,1.4-2.4c0.4-0.7,0.8-1.3,1.2-2
								c2.4-3.7,4.7-6.7,6.2-8.4c0.3-0.2,0.7-0.3,1.1-0.5c0.2-0.1,0.4-0.2,0.7-0.3l0,0l0.7-0.3l0,0l0.2,0.2l0.4,0.4l0.2,0.2
								c0,0,0,0.1-0.1,0.1l0,0c-0.2,0.2-0.5,0.5-0.9,1c-0.1,0.1-0.1,0.1-0.2,0.2c-0.3,0.3-0.6,0.7-1,1.2c-1.3,1.6-3,3.9-4.8,6.6l0,0
								c-0.4,0.7-0.9,1.4-1.3,2.1c-2.2,3.5-4.3,7.7-5.9,12.1c-0.3,0.7-0.5,1.5-0.7,2.2c-1.7,5.8-2.3,12.1-0.5,18
								c0,0.1,0,0.1,0.1,0.2c0.2,0.7,0.5,1.5,0.8,2.2c2.2,5.3,6.2,9.8,12,13.8c0.6,0.4,1.3,0.9,2,1.3c3.5,2.1,7.6,4,12.2,5.7
								c0.8,0.3,1.6,0.6,2.4,0.8c2.5,0.8,5.2,1.6,8,2.4c0.3,0.1,0.7,0.2,1,0.2c0.1,0,0.2,0.1,0.3,0.1c0.4,0.1,0.9,0.2,1.3,0.3
								C99.1,109,99.2,109,99.3,109z"/>
						</g>
					</g>
				</g>
			</g>
		</g>
	</g>
	<g>
		<path fill="#FFFFFF" d="M86.2,116.3c-0.1,0-0.1,0-0.2,0c-0.6-0.1-1.2-0.5-1.7-1c-0.3-0.3-0.3-0.8,0-1.1c0.3-0.3,0.8-0.3,1.1,0
			c0.3,0.3,0.7,0.5,1,0.6c0.4,0.1,0.7,0.5,0.6,0.9C86.9,116.1,86.6,116.3,86.2,116.3z M89.3,114.3c-0.1,0-0.3,0-0.4-0.1
			c-0.4-0.2-0.5-0.7-0.2-1.1c0.2-0.4,0.5-0.8,0.7-1.3c0.2-0.4,0.7-0.6,1.1-0.4c0.4,0.2,0.6,0.7,0.4,1.1c-0.3,0.5-0.5,1-0.8,1.5
			C89.8,114.2,89.6,114.3,89.3,114.3z M91.5,109.3c-0.1,0-0.2,0-0.2,0c-0.4-0.1-0.6-0.6-0.5-1c0.1-0.5,0.3-1,0.4-1.5
			c0.1-0.4,0.5-0.7,1-0.6c0.4,0.1,0.7,0.5,0.6,1c-0.1,0.5-0.3,1-0.4,1.5C92.1,109.1,91.8,109.3,91.5,109.3z M92.8,103.9
			c-0.1,0-0.1,0-0.2,0c-0.4-0.1-0.7-0.5-0.6-0.9c0.1-0.5,0.2-1,0.3-1.5c0.1-0.4,0.5-0.7,0.9-0.6c0.4,0.1,0.7,0.5,0.6,0.9
			c-0.1,0.5-0.2,1.1-0.3,1.6C93.5,103.7,93.2,103.9,92.8,103.9z M93.8,98.5c0,0-0.1,0-0.1,0c-0.4-0.1-0.7-0.5-0.7-0.9
			c0.1-0.5,0.1-1,0.2-1.5c0.1-0.4,0.5-0.7,0.9-0.7c0.4,0.1,0.7,0.5,0.7,0.9c-0.1,0.5-0.1,1.1-0.2,1.6C94.5,98.2,94.2,98.5,93.8,98.5
			z M94.9,87.5C94.9,87.5,94.9,87.5,94.9,87.5c-0.5,0-0.8-0.4-0.8-0.8c0-0.5,0.1-1,0.1-1.6c0-0.4,0.4-0.8,0.8-0.7
			c0.4,0,0.8,0.4,0.7,0.8c0,0.5-0.1,1.1-0.1,1.6C95.7,87.2,95.3,87.5,94.9,87.5z M95.2,82C95.2,82,95.2,82,95.2,82
			c-0.5,0-0.8-0.4-0.8-0.8c0-0.5,0-1,0.1-1.6c0-0.4,0.4-0.8,0.8-0.8c0.4,0,0.8,0.4,0.8,0.8c0,0.5,0,1.1-0.1,1.6
			C96,81.7,95.6,82,95.2,82z M95.3,76.5C95.3,76.5,95.3,76.5,95.3,76.5c-0.4,0-0.8-0.4-0.8-0.8c0-0.5,0-1,0-1.6
			c0-0.4,0.4-0.8,0.8-0.8c0,0,0,0,0,0c0.4,0,0.8,0.4,0.8,0.8c0,0.5,0,1.1,0,1.6C96.1,76.2,95.8,76.5,95.3,76.5z M95.3,71
			c-0.4,0-0.8-0.3-0.8-0.8c0-0.5,0-1,0-1.6c0-0.4,0.3-0.8,0.8-0.8c0.4,0,0.8,0.3,0.8,0.8c0,0.5,0,1.1,0,1.6
			C96.1,70.6,95.8,71,95.3,71C95.3,71,95.3,71,95.3,71z M95.1,65.5c-0.4,0-0.8-0.3-0.8-0.8c0-0.5,0-1-0.1-1.6c0-0.4,0.3-0.8,0.7-0.8
			c0.4,0,0.8,0.3,0.8,0.7c0,0.5,0.1,1,0.1,1.6C96,65.1,95.6,65.5,95.1,65.5C95.2,65.5,95.2,65.5,95.1,65.5z M94.8,60
			c-0.4,0-0.8-0.3-0.8-0.7c0-0.5-0.1-1-0.1-1.6c0-0.4,0.3-0.8,0.7-0.9c0.4,0,0.8,0.3,0.9,0.7c0,0.5,0.1,1,0.1,1.6
			C95.6,59.6,95.3,59.9,94.8,60C94.9,60,94.8,60,94.8,60z M94.3,54.5c-0.4,0-0.7-0.3-0.8-0.7c-0.1-0.5-0.1-1-0.2-1.6
			c-0.1-0.4,0.3-0.8,0.7-0.9c0.4-0.1,0.8,0.3,0.9,0.7c0.1,0.5,0.1,1,0.2,1.6C95.1,54,94.8,54.4,94.3,54.5
			C94.4,54.5,94.3,54.5,94.3,54.5z M93.6,49c-0.4,0-0.7-0.3-0.8-0.7c-0.1-0.5-0.2-1-0.3-1.5c-0.1-0.4,0.2-0.8,0.6-0.9
			c0.4-0.1,0.8,0.2,0.9,0.6c0.1,0.5,0.2,1,0.3,1.6c0.1,0.4-0.2,0.8-0.7,0.9C93.6,49,93.6,49,93.6,49z M92.5,43.6
			c-0.4,0-0.7-0.2-0.8-0.6c-0.1-0.5-0.2-1-0.4-1.5c-0.1-0.4,0.1-0.8,0.6-1c0.4-0.1,0.8,0.1,1,0.6c0.1,0.5,0.3,1,0.4,1.6
			c0.1,0.4-0.2,0.8-0.6,0.9C92.6,43.6,92.6,43.6,92.5,43.6z M91,38.3c-0.3,0-0.6-0.2-0.7-0.5c-0.2-0.5-0.4-1-0.6-1.4
			c-0.2-0.4,0-0.9,0.4-1c0.4-0.2,0.9,0,1,0.4c0.2,0.5,0.4,1,0.6,1.5c0.1,0.4-0.1,0.9-0.5,1C91.2,38.3,91.1,38.3,91,38.3z M83.2,35.8
			c-0.1,0-0.2,0-0.3-0.1c-0.4-0.2-0.6-0.7-0.4-1.1c0.3-0.5,0.5-1,0.8-1.5c0.2-0.4,0.7-0.5,1.1-0.2c0.4,0.2,0.5,0.7,0.2,1.1
			c-0.2,0.4-0.5,0.8-0.7,1.3C83.8,35.7,83.5,35.8,83.2,35.8z M88.5,33.5c-0.2,0-0.4-0.1-0.6-0.2c-0.3-0.3-0.6-0.6-1-0.6
			c-0.4-0.1-0.7-0.6-0.5-1c0.1-0.4,0.6-0.7,1-0.5c0.6,0.2,1.1,0.5,1.6,1c0.3,0.3,0.3,0.8,0,1.1C88.9,33.4,88.7,33.5,88.5,33.5z"/>
	</g>
	<g>
		<path fill="#FFFFFF" d="M114.4,104.7L114.4,104.7c-0.5,0-0.9-0.4-0.9-0.8c0-0.4,0.4-0.8,0.8-0.8c0,0,0,0,0,0l0.1,0
			c0.4,0,0.8-0.1,1.1-0.2c0.4-0.2,0.9-0.1,1.1,0.3c0.2,0.4,0.1,0.9-0.3,1.1C115.7,104.6,115.1,104.7,114.4,104.7z M110.5,103.8
			c-0.1,0-0.2,0-0.3-0.1c-0.5-0.2-1-0.4-1.5-0.7c-0.4-0.2-0.6-0.7-0.4-1.1c0.2-0.4,0.7-0.6,1.1-0.4c0.5,0.2,1,0.4,1.4,0.6
			c0.4,0.2,0.6,0.6,0.4,1C111.1,103.6,110.8,103.8,110.5,103.8z M105.6,101.3c-0.1,0-0.3,0-0.4-0.1c-0.4-0.3-0.9-0.5-1.4-0.8
			c-0.4-0.2-0.5-0.7-0.2-1.1c0.2-0.4,0.7-0.5,1.1-0.2c0.5,0.3,0.9,0.6,1.3,0.8c0.4,0.2,0.5,0.7,0.3,1.1
			C106.1,101.1,105.9,101.3,105.6,101.3z M116.7,100.9c-0.4,0-0.7-0.3-0.8-0.6c-0.1-0.4-0.2-0.9-0.4-1.4c-0.1-0.4,0.1-0.9,0.5-1
			c0.4-0.1,0.9,0.1,1,0.5c0.2,0.6,0.3,1.1,0.4,1.6c0.1,0.4-0.2,0.8-0.6,0.9C116.9,100.9,116.8,100.9,116.7,100.9z M101,98.2
			c-0.2,0-0.3,0-0.5-0.1c-0.4-0.3-0.9-0.6-1.3-0.9c-0.4-0.3-0.4-0.7-0.2-1.1c0.3-0.4,0.7-0.4,1.1-0.2c0.4,0.3,0.9,0.6,1.3,0.9
			c0.4,0.2,0.4,0.7,0.2,1.1C101.5,98.1,101.2,98.2,101,98.2z M96.5,95c-0.2,0-0.3-0.1-0.5-0.2c-0.4-0.3-0.8-0.6-1.2-1
			c-0.3-0.3-0.4-0.8-0.1-1.1c0.3-0.3,0.8-0.4,1.1-0.1c0.4,0.3,0.8,0.7,1.2,1c0.3,0.3,0.4,0.8,0.1,1.1C97,94.9,96.8,95,96.5,95z
			 M92.3,91.5c-0.2,0-0.4-0.1-0.5-0.2c-0.4-0.3-0.8-0.7-1.2-1c-0.3-0.3-0.4-0.8-0.1-1.1c0.3-0.3,0.8-0.4,1.1-0.1
			c0.4,0.3,0.8,0.7,1.2,1c0.3,0.3,0.4,0.8,0.1,1.1C92.7,91.4,92.5,91.5,92.3,91.5z M88.1,87.9c-0.2,0-0.4-0.1-0.5-0.2
			c-0.4-0.3-0.8-0.7-1.2-1.1c-0.3-0.3-0.3-0.8-0.1-1.1c0.3-0.3,0.8-0.3,1.1-0.1c0.4,0.4,0.8,0.7,1.2,1.1c0.3,0.3,0.4,0.8,0.1,1.1
			C88.5,87.8,88.3,87.9,88.1,87.9z M84,84.1c-0.2,0-0.4-0.1-0.5-0.2c-0.4-0.4-0.8-0.7-1.1-1.1c-0.3-0.3-0.3-0.8,0-1.1
			c0.3-0.3,0.8-0.3,1.1,0c0.4,0.4,0.8,0.7,1.1,1.1c0.3,0.3,0.3,0.8,0,1.1C84.5,84,84.3,84.1,84,84.1z M80.1,80.3
			c-0.2,0-0.4-0.1-0.6-0.2c-0.4-0.4-0.7-0.8-1.1-1.1c-0.3-0.3-0.3-0.8,0-1.1c0.3-0.3,0.8-0.3,1.1,0c0.4,0.4,0.7,0.7,1.1,1.1
			c0.3,0.3,0.3,0.8,0,1.1C80.5,80.2,80.3,80.3,80.1,80.3z M76.3,76.3c-0.2,0-0.4-0.1-0.6-0.2c-0.4-0.4-0.7-0.8-1.1-1.2
			c-0.3-0.3-0.3-0.8,0-1.1c0.3-0.3,0.8-0.3,1.1,0c0.4,0.4,0.7,0.8,1.1,1.1c0.3,0.3,0.3,0.8,0,1.1C76.7,76.2,76.5,76.3,76.3,76.3z
			 M72.5,72.2c-0.2,0-0.4-0.1-0.6-0.3c-0.4-0.4-0.7-0.8-1-1.2c-0.3-0.3-0.3-0.8,0.1-1.1c0.3-0.3,0.8-0.3,1.1,0.1
			c0.3,0.4,0.7,0.8,1,1.2c0.3,0.3,0.3,0.8-0.1,1.1C72.9,72.2,72.7,72.2,72.5,72.2z M69,68.1c-0.2,0-0.5-0.1-0.6-0.3
			c-0.3-0.4-0.7-0.8-1-1.2c-0.3-0.3-0.2-0.8,0.1-1.1c0.3-0.3,0.8-0.2,1.1,0.1c0.3,0.4,0.7,0.8,1,1.2c0.3,0.3,0.2,0.8-0.1,1.1
			C69.3,68,69.1,68.1,69,68.1z M65.5,63.8c-0.2,0-0.5-0.1-0.6-0.3c-0.3-0.4-0.6-0.8-1-1.3c-0.3-0.3-0.2-0.8,0.2-1.1
			c0.3-0.3,0.8-0.2,1.1,0.2c0.3,0.4,0.6,0.8,0.9,1.2c0.3,0.3,0.2,0.8-0.1,1.1C65.8,63.7,65.7,63.8,65.5,63.8z M62.3,59.3
			c-0.3,0-0.5-0.1-0.7-0.3c-0.3-0.4-0.6-0.9-0.9-1.3c-0.2-0.4-0.1-0.9,0.2-1.1c0.4-0.2,0.9-0.1,1.1,0.2c0.3,0.4,0.6,0.9,0.9,1.3
			c0.2,0.4,0.2,0.8-0.2,1.1C62.6,59.3,62.4,59.3,62.3,59.3z M59.3,54.6c-0.3,0-0.5-0.1-0.7-0.4c-0.3-0.5-0.5-0.9-0.8-1.4
			c-0.2-0.4-0.1-0.9,0.3-1.1c0.4-0.2,0.9-0.1,1.1,0.3c0.2,0.4,0.5,0.9,0.7,1.4c0.2,0.4,0.1,0.9-0.3,1.1
			C59.6,54.6,59.5,54.6,59.3,54.6z M57,49.7c-0.3,0-0.6-0.2-0.7-0.5c-0.2-0.6-0.4-1.1-0.5-1.6c-0.1-0.4,0.2-0.8,0.6-0.9
			c0.4-0.1,0.8,0.2,0.9,0.6c0.1,0.4,0.2,0.9,0.4,1.4c0.1,0.4-0.1,0.9-0.5,1C57.1,49.7,57,49.7,57,49.7z M57.3,44.6
			c-0.3,0-0.5-0.1-0.7-0.4c-0.2-0.4-0.1-0.9,0.3-1.1c0.5-0.3,1.2-0.5,1.9-0.5c0,0,0,0,0,0c0.4,0,0.8,0.3,0.8,0.8
			c0,0.4-0.3,0.8-0.8,0.8c-0.5,0-0.8,0.1-1.1,0.3C57.6,44.5,57.5,44.6,57.3,44.6z"/>
	</g>
	<g>
		<path fill="#FFFFFF" d="M55.1,98.3c-0.2,0-0.5,0-0.7,0c-0.4,0-0.8-0.4-0.7-0.8c0-0.4,0.4-0.8,0.8-0.7c0.4,0,0.9,0,1.4,0
			c0.4,0,0.8,0.3,0.9,0.7c0,0.4-0.3,0.8-0.7,0.9C55.7,98.3,55.4,98.3,55.1,98.3z M59.9,97.5c-0.3,0-0.7-0.2-0.8-0.6
			c-0.1-0.4,0.1-0.9,0.6-1c0.5-0.1,1-0.3,1.5-0.4c0.4-0.1,0.9,0.1,1,0.5c0.1,0.4-0.1,0.9-0.5,1c-0.5,0.2-1,0.3-1.5,0.4
			C60,97.5,60,97.5,59.9,97.5z M51.7,96.1c-0.4,0-0.8-0.3-0.8-0.8c0-0.1,0-0.1,0-0.2c0-0.5,0.1-1.1,0.3-1.7c0.1-0.4,0.6-0.6,1-0.5
			c0.4,0.1,0.6,0.6,0.5,1c-0.1,0.4-0.2,0.8-0.2,1.2c0,0,0,0.1,0,0.1C52.5,95.7,52.1,96.1,51.7,96.1C51.7,96.1,51.7,96.1,51.7,96.1z
			 M65.1,95.8c-0.3,0-0.6-0.2-0.7-0.5c-0.2-0.4,0-0.9,0.5-1c0.5-0.2,1-0.4,1.4-0.6c0.4-0.2,0.9,0,1,0.4c0.2,0.4,0,0.9-0.4,1
			c-0.5,0.2-1,0.4-1.5,0.6C65.3,95.7,65.2,95.8,65.1,95.8z M70.2,93.6c-0.3,0-0.6-0.2-0.7-0.5c-0.2-0.4,0-0.9,0.4-1
			c0.5-0.2,0.9-0.4,1.4-0.7c0.4-0.2,0.9,0,1,0.4c0.2,0.4,0,0.9-0.4,1c-0.5,0.2-1,0.5-1.4,0.7C70.4,93.6,70.3,93.6,70.2,93.6z
			 M75.2,91.2c-0.3,0-0.6-0.2-0.7-0.4c-0.2-0.4,0-0.9,0.3-1.1c0.5-0.2,0.9-0.5,1.4-0.7c0.4-0.2,0.9-0.1,1.1,0.3
			c0.2,0.4,0.1,0.9-0.3,1.1c-0.5,0.2-0.9,0.5-1.4,0.7C75.4,91.2,75.3,91.2,75.2,91.2z M80,88.6c-0.3,0-0.5-0.1-0.7-0.4
			c-0.2-0.4-0.1-0.9,0.3-1.1c0.5-0.3,0.9-0.5,1.4-0.8c0.4-0.2,0.9-0.1,1.1,0.3c0.2,0.4,0.1,0.9-0.3,1.1c-0.5,0.3-0.9,0.5-1.4,0.8
			C80.3,88.6,80.2,88.6,80,88.6z M89.5,82.9c-0.3,0-0.5-0.1-0.7-0.4c-0.2-0.4-0.1-0.9,0.2-1.1c0.4-0.3,0.9-0.6,1.3-0.8
			c0.4-0.2,0.9-0.1,1.1,0.2c0.2,0.4,0.1,0.9-0.2,1.1c-0.4,0.3-0.9,0.6-1.3,0.9C89.8,82.9,89.6,82.9,89.5,82.9z M94.1,79.9
			c-0.3,0-0.5-0.1-0.7-0.3c-0.2-0.4-0.1-0.9,0.2-1.1c0.4-0.3,0.9-0.6,1.3-0.9c0.4-0.2,0.8-0.2,1.1,0.2c0.2,0.4,0.2,0.8-0.2,1.1
			c-0.4,0.3-0.9,0.6-1.3,0.9C94.4,79.9,94.3,79.9,94.1,79.9z M98.6,76.7c-0.2,0-0.5-0.1-0.6-0.3c-0.3-0.4-0.2-0.8,0.2-1.1
			c0.4-0.3,0.9-0.6,1.3-0.9c0.4-0.3,0.8-0.2,1.1,0.2c0.3,0.4,0.2,0.8-0.2,1.1c-0.4,0.3-0.8,0.6-1.3,0.9
			C98.9,76.7,98.8,76.7,98.6,76.7z M103.1,73.5c-0.2,0-0.5-0.1-0.6-0.3c-0.3-0.3-0.2-0.8,0.1-1.1c0.4-0.3,0.8-0.6,1.2-1
			c0.3-0.3,0.8-0.2,1.1,0.1c0.3,0.3,0.2,0.8-0.1,1.1c-0.4,0.3-0.8,0.6-1.3,1C103.4,73.4,103.2,73.5,103.1,73.5z M107.4,70
			c-0.2,0-0.5-0.1-0.6-0.3c-0.3-0.3-0.2-0.8,0.1-1.1c0.4-0.3,0.8-0.7,1.2-1c0.3-0.3,0.8-0.2,1.1,0.1c0.3,0.3,0.2,0.8-0.1,1.1
			c-0.4,0.3-0.8,0.7-1.2,1C107.7,70,107.5,70,107.4,70z M111.6,66.4c-0.2,0-0.4-0.1-0.6-0.3c-0.3-0.3-0.3-0.8,0.1-1.1
			c0.4-0.4,0.8-0.7,1.2-1.1c0.3-0.3,0.8-0.3,1.1,0c0.3,0.3,0.3,0.8,0,1.1c-0.4,0.4-0.8,0.7-1.2,1.1
			C111.9,66.4,111.7,66.4,111.6,66.4z M115.5,62.6c-0.2,0-0.4-0.1-0.6-0.2c-0.3-0.3-0.3-0.8,0-1.1c0.4-0.4,0.7-0.8,1.1-1.1
			c0.3-0.3,0.8-0.3,1.1,0c0.3,0.3,0.3,0.8,0,1.1c-0.4,0.4-0.7,0.8-1.1,1.1C116,62.6,115.8,62.6,115.5,62.6z M119.2,58.5
			c-0.2,0-0.3-0.1-0.5-0.2c-0.3-0.3-0.4-0.8-0.1-1.1c0.3-0.4,0.6-0.8,0.9-1.2c0.3-0.4,0.7-0.4,1.1-0.2c0.4,0.3,0.4,0.7,0.2,1.1
			c-0.3,0.4-0.6,0.8-1,1.3C119.7,58.4,119.5,58.5,119.2,58.5z M122.1,53.8c-0.1,0-0.2,0-0.3,0c-0.4-0.1-0.6-0.6-0.5-1
			c0.2-0.5,0.3-0.9,0.3-1.3c0-0.4,0.4-0.8,0.8-0.8c0.4,0,0.8,0.3,0.8,0.8h-0.8l0.8,0c0,0.6-0.1,1.1-0.3,1.8
			C122.7,53.6,122.4,53.8,122.1,53.8z M118.1,50c-0.4,0-0.8-0.3-0.8-0.7c0-0.4,0.3-0.8,0.7-0.8c0.6,0,1.2,0,1.7,0
			c0.4,0,0.8,0.4,0.7,0.9c0,0.4-0.4,0.8-0.9,0.7C119.2,50,118.7,50,118.1,50C118.2,50,118.1,50,118.1,50z"/>
	</g>
	<g>
		<circle fill="#0D81BB" cx="92.6" cy="41.6" r="2.7"/>
	</g>
	<g>
		<circle fill="#0D81BB" cx="65" cy="62.6" r="2.7"/>
	</g>
	<g>
		<circle fill="#0D81BB" cx="79.5" cy="78.8" r="2.7"/>
	</g>
	<g>
		<circle fill="#0D81BB" cx="65.7" cy="94.9" r="2.5"/>
	</g>
	<g>
		<circle fill="#0D81BB" cx="116.5" cy="61.4" r="2.7"/>
	</g>
	<g>
		<circle fill="#0D81BB" cx="105.3" cy="100" r="2.7"/>
	</g>
	<g>
		<circle fill="#0D81BB" cx="95.1" cy="79.7" r="2.7"/>
	</g>
</g>
</svg>
